<?xml version="1.0" standalone="no"?>
<!DOCTYPE svg PUBLIC "-//W3C//DTD SVG 20010904//EN"
 "http://www.w3.org/TR/2001/REC-SVG-20010904/DTD/svg10.dtd">
<svg version="1.0" xmlns="http://www.w3.org/2000/svg"
 width="327.000000pt" height="327.000000pt" viewBox="0 0 327.000000 327.000000"
 preserveAspectRatio="xMidYMid meet">
<metadata>
Created by potrace 1.11, written by Peter Selinger 2001-2013
</metadata>
<g transform="translate(0.000000,327.000000) scale(0.100000,-0.100000)"
fill="#000000" stroke="none">
<path d="M1680 2724 l0 -155 58 -25 c31 -14 66 -29 77 -34 11 -5 110 -48 220
-95 231 -100 243 -105 309 -134 26 -12 50 -21 51 -19 2 2 -47 46 -108 98 -137
118 -179 154 -237 206 -25 22 -112 98 -195 169 -82 71 -151 133 -153 137 -2 5
-8 8 -13 8 -5 0 -9 -68 -9 -156z"/>
<path d="M1545 2850 c-11 -10 -229 -193 -485 -405 -256 -213 -485 -404 -510
-425 -25 -21 -145 -121 -267 -223 l-223 -185 52 -44 c29 -23 60 -50 69 -58 9
-8 25 -22 35 -30 10 -9 91 -75 179 -149 88 -73 180 -149 204 -169 56 -47 248
-207 281 -235 14 -12 49 -41 78 -65 30 -24 64 -52 75 -62 12 -10 45 -37 72
-60 75 -63 77 -65 265 -220 96 -80 183 -151 193 -159 16 -13 17 48 17 1248 0
693 -3 1261 -7 1260 -5 0 -17 -9 -28 -19z"/>
<path d="M1690 2532 c0 -4 17 -26 38 -48 20 -23 48 -54 61 -70 14 -16 54 -63
90 -105 94 -108 163 -188 186 -216 11 -14 35 -41 52 -60 l33 -34 97 99 c54 55
106 109 117 120 22 25 64 4 -374 192 -118 51 -234 101 -257 111 -24 10 -43 15
-43 11z"/>
<path d="M1680 2212 l0 -293 53 6 c28 4 70 10 92 15 22 5 63 12 90 16 28 3 52
7 55 9 6 4 108 18 133 19 9 0 16 3 15 7 -3 7 -385 456 -420 494 -18 19 -18 12
-18 -273z"/>
<path d="M2297 2118 c-63 -68 -119 -127 -124 -132 -4 -5 -1 -7 7 -4 8 3 24 2
36 -3 11 -4 38 -10 60 -13 75 -12 221 -38 289 -51 17 -4 46 -9 65 -12 19 -3
74 -13 123 -22 48 -10 87 -15 86 -12 0 3 -46 46 -102 95 -91 80 -214 189 -285
254 -14 12 -28 22 -32 22 -4 0 -59 -55 -123 -122z"/>
<path d="M2160 1964 c0 -6 68 -107 187 -281 l64 -92 209 127 c121 73 204 129
197 133 -7 4 -33 10 -58 13 -25 3 -95 15 -155 26 -60 11 -122 23 -139 25 -16
3 -41 8 -55 10 -51 11 -75 15 -115 21 -22 3 -58 9 -80 14 -48 11 -55 12 -55 4z"/>
<path d="M2020 1950 c-25 -5 -58 -11 -75 -14 -63 -12 -211 -38 -227 -39 -10
-1 -18 -4 -18 -8 0 -4 21 -51 46 -105 25 -55 59 -126 74 -159 15 -33 63 -132
105 -220 42 -88 86 -180 96 -204 11 -24 21 -42 23 -40 4 4 11 84 21 219 2 30
7 93 11 140 3 47 8 105 9 130 5 78 15 213 21 263 6 53 6 53 -86 37z"/>
<path d="M2128 1918 c0 -24 -2 -47 -3 -53 -1 -5 -5 -55 -9 -110 -5 -55 -10
-116 -11 -135 -2 -19 -6 -71 -10 -115 -3 -44 -8 -98 -10 -120 -2 -22 -7 -78
-10 -125 -4 -47 -9 -93 -12 -104 -8 -28 11 -12 44 37 15 23 83 120 151 214
l123 172 -118 190 c-65 105 -121 191 -125 191 -5 0 -9 -19 -10 -42z"/>
<path d="M1680 1538 l0 -314 143 -28 c78 -15 154 -31 170 -36 16 -5 27 -5 27
0 0 5 -76 163 -170 351 l-170 342 0 -315z"/>
<path d="M2669 1719 c-101 -60 -188 -114 -193 -120 -6 -5 14 -9 55 -10 86 0
376 -8 518 -13 l114 -4 -29 27 c-39 36 -273 231 -277 231 -2 0 -87 -50 -188
-111z"/>
<path d="M2256 1357 c-85 -116 -154 -212 -152 -215 2 -2 12 2 23 7 10 6 222
98 472 205 261 111 445 195 435 198 -11 2 -143 5 -294 7 -151 1 -287 4 -301 5
-24 3 -43 -19 -183 -207z"/>
<path d="M3105 1545 c-39 -19 -74 -34 -560 -237 -170 -72 -334 -140 -362 -152
-54 -21 -67 -35 -35 -37 23 -1 45 -4 192 -29 69 -11 141 -23 160 -26 33 -4 48
6 266 183 409 333 403 328 339 298z"/>
<path d="M1692 1189 c5 -11 489 -399 498 -399 14 0 313 244 304 247 -11 3
-149 30 -189 37 -16 3 -77 15 -135 26 -58 12 -116 23 -130 26 -14 3 -98 19
-188 37 -89 18 -161 30 -160 26z"/>
<path d="M1680 751 c0 -298 3 -420 11 -416 17 11 485 409 490 417 2 4 -54 55
-126 113 -71 59 -139 114 -150 123 -11 10 -58 48 -105 86 -47 38 -93 76 -102
84 -17 14 -18 -6 -18 -407z"/>
</g>
</svg>
